# xmcd
# 
# Track frame offsets:
#     150
#     18601
#     34569
#     53033
#     69539
#     86068
#     101777
#     118317
#     132714
#     148575
#     166321
#     187699
#     207967
#     233665
# 
# Disc length: 3336
# 
# Revision: 0
# Processed by: cddbd v1.5.2PL0 Copyright (c) Steve Scherf et al.
# Submitted via: fre:ac v1.0.31
# 
DISCID=c60d060e
DTITLE=The High Kings - Memory Lane
DYEAR=2011
DGENRE=Celtic
TTITLE0=Step It Out Mary
TTITLE1=As I Roved Out
TTITLE2=The Fields of Athenry
TTITLE3=On the One Road
TTITLE4=Raglan Road
TTITLE5=Whiskey in the Jar
TTITLE6=Leaving of Liverpool
TTITLE7=Red is the Rose
TTITLE8=Star of the County Down
TTITLE9=Boolavogue
TTITLE10=Cavan Girl
TTITLE11=The Rising of the Moon
TTITLE12=Green Fields of France
TTITLE13=The Irish Rover
EXTD=
EXTT0=
EXTT1=
EXTT2=
EXTT3=Featuring The Wolfe Tones
EXTT4=
EXTT5=
EXTT6=
EXTT7=
EXTT8=
EXTT9=
EXTT10=
EXTT11=
EXTT12=
EXTT13=
PLAYORDER=
